#
#
#

mtllib elevator.mtl


#
# Layer0_001 Mesh
#
g Layer0_001 Mesh


#
# Layer0_001 Mesh_wire_087224198
#
usemtl Layer0_001 Mesh_wire_087224198

v -0.353467 0.000000 0.087406
v -0.353467 0.000000 0.072038
v -0.322731 0.000000 0.072038
v -0.322731 0.000000 0.087406
v 0.322731 0.000000 0.087406
v 0.353467 0.000000 0.087406
v 0.353467 1.379289 0.087406
v 0.322731 1.290922 0.087406
v 0.009696 1.298923 0.087406
v 0.018731 1.302665 0.087406
v 0.026488 1.308617 0.087406
v 0.032441 1.316376 0.087406
v 0.036183 1.325410 0.087406
v 0.037460 1.335106 0.087406
v 0.036183 1.344801 0.087406
v 0.032441 1.353836 0.087406
v 0.026488 1.361594 0.087406
v 0.018731 1.367546 0.087406
v 0.009696 1.371288 0.087406
v 0.000000 1.372565 0.087406
v -0.353467 1.379289 0.087406
v -0.009696 1.371288 0.087406
v -0.018731 1.367546 0.087406
v -0.026488 1.361594 0.087406
v -0.032441 1.353836 0.087406
v -0.036183 1.344801 0.087406
v -0.036671 1.341094 0.087406
v -0.037460 1.335106 0.087406
v -0.036183 1.325410 0.087406
v -0.032441 1.316376 0.087406
v -0.026488 1.308617 0.087406
v -0.018731 1.302665 0.087406
v -0.009696 1.298923 0.087406
v -0.322731 1.290922 0.087406
v 0.000000 1.297646 0.087406
v -0.353467 1.379289 0.072038
v 0.353467 1.379289 0.072038
v -0.322731 1.290922 -0.073959
v -0.322731 0.000000 -0.073959
v 0.322731 0.000000 0.072038
v 0.353467 0.000000 0.072038
v 0.167128 0.000000 -0.078762
v 0.167128 0.000000 -0.087406
v 0.334257 0.000000 -0.087406
v 0.322731 0.000000 -0.073959
v 0.334257 0.000000 -0.073959
v 0.161365 0.000000 -0.073959
v 0.000000 0.000000 -0.073959
v 0.000000 0.000000 -0.078762
v 0.161365 1.290922 -0.073959
v 0.000000 1.290922 -0.073959
v -0.334257 0.000000 -0.073959
v -0.334257 0.000000 -0.087406
v -0.167128 0.000000 -0.087406
v -0.167128 0.000000 -0.078762
v -0.161365 0.000000 -0.073959
v 0.000000 1.290922 -0.078762
v 0.167128 1.290922 -0.078762
v 0.322731 1.290922 -0.073959
v 0.167128 1.290922 -0.087406
v 0.334257 1.290922 -0.087406
v 0.334257 1.290922 -0.073959
v -0.161365 1.290922 -0.073959
v -0.167128 1.290922 -0.078762
v -0.167128 1.290922 -0.087406
v -0.334257 1.290922 -0.087406
v -0.334257 1.290922 -0.073959
v -0.006106 1.339928 0.093169
v 0.000000 1.339788 0.093169
v 0.006106 1.339928 0.093169
v 0.007085 1.339996 0.093169
v -0.012198 1.340348 0.093169
v 0.010755 1.340249 0.093169
v 0.012198 1.340348 0.093169
v 0.018265 1.341047 0.093169
v -0.018265 1.341047 0.093169
v 0.024292 1.342024 0.093169
v -0.024292 1.342024 0.093169
v 0.030271 1.343275 0.093169
v -0.030271 1.343275 0.093169
v 0.036183 1.344801 0.093169
v -0.036183 1.344801 0.093169
v 0.032441 1.353836 0.093169
v -0.032441 1.353836 0.093169
v 0.026488 1.361594 0.093169
v -0.026488 1.361594 0.093169
v 0.018731 1.367546 0.093169
v -0.018731 1.367546 0.093169
v 0.009696 1.371288 0.093169
v -0.009696 1.371288 0.093169
v 0.000000 1.372565 0.093169
v -0.009696 1.298923 0.093169
v 0.000000 1.297646 0.093169
v 0.009696 1.298923 0.093169
v 0.018731 1.302665 0.093169
v -0.018731 1.302665 0.093169
v 0.026488 1.308617 0.093169
v -0.026488 1.308617 0.093169
v 0.032441 1.316376 0.093169
v -0.032441 1.316376 0.093169
v 0.036183 1.325410 0.093169
v -0.036183 1.325410 0.093169
v 0.030271 1.326936 0.093169
v -0.030271 1.326936 0.093169
v -0.024292 1.328187 0.093169
v 0.024292 1.328187 0.093169
v 0.018265 1.329164 0.093169
v -0.018265 1.329164 0.093169
v 0.012198 1.329863 0.093169
v -0.012198 1.329863 0.093169
v 0.010755 1.329962 0.093169
v -0.006106 1.330283 0.093169
v 0.007085 1.330215 0.093169
v 0.006106 1.330283 0.093169
v 0.000000 1.330423 0.093169
v 0.037460 1.335106 0.093169
v -0.037460 1.335106 0.093169
v 0.000000 1.290922 -0.093169
v 0.167128 1.290922 -0.093169
v -0.167128 1.290922 -0.093169
v -0.334257 1.290922 -0.093169
v -0.334257 0.000000 -0.093169
v 0.334257 1.290922 -0.093169
v 0.334257 0.000000 -0.093169
v 0.016385 1.349061 -0.093169
v 0.024578 1.349061 -0.093169
v 0.024578 1.356040 -0.093169
v 0.016385 1.356040 -0.093169
v 0.000000 1.349061 -0.093169
v 0.008193 1.349061 -0.093169
v 0.008193 1.356040 -0.093169
v 0.000000 1.356040 -0.093169
v 0.000000 1.307192 -0.093169
v 0.008193 1.307192 -0.093169
v 0.008193 1.314171 -0.093169
v 0.000000 1.314171 -0.093169
v -0.016385 1.321150 -0.093169
v -0.008193 1.321150 -0.093169
v -0.008193 1.328127 -0.093169
v -0.016385 1.328127 -0.093169
v -0.016385 1.314171 -0.093169
v -0.008193 1.314171 -0.093169
v -0.065540 1.356040 -0.093169
v -0.057348 1.356040 -0.093169
v -0.057348 1.363019 -0.093169
v -0.065540 1.363019 -0.093169
v 0.057348 1.356040 -0.093169
v 0.065540 1.356040 -0.093169
v 0.065540 1.363019 -0.093169
v 0.057348 1.363019 -0.093169
v 0.032769 1.356040 -0.093169
v 0.040962 1.356040 -0.093169
v 0.040962 1.363019 -0.093169
v 0.032769 1.363019 -0.093169
v 0.057348 1.314171 -0.093169
v 0.065540 1.314171 -0.093169
v 0.065540 1.321150 -0.093169
v 0.057348 1.321150 -0.093169
v -0.065540 1.349061 -0.093169
v -0.057348 1.349061 -0.093169
v -0.065540 1.307192 -0.093169
v -0.057348 1.307192 -0.093169
v -0.057348 1.314171 -0.093169
v -0.065540 1.314171 -0.093169
v 0.049155 1.356040 -0.093169
v 0.049155 1.363019 -0.093169
v -0.049155 1.349061 -0.093169
v -0.040962 1.349061 -0.093169
v -0.040962 1.356040 -0.093169
v -0.049155 1.356040 -0.093169
v 0.016385 1.321150 -0.093169
v 0.024578 1.321150 -0.093169
v 0.024578 1.328127 -0.093169
v 0.016385 1.328127 -0.093169
v 0.049155 1.328127 -0.093169
v 0.057348 1.328127 -0.093169
v 0.057348 1.335106 -0.093169
v 0.049155 1.335106 -0.093169
v 0.065540 1.335106 -0.093169
v 0.065540 1.342084 -0.093169
v 0.057348 1.342084 -0.093169
v -0.049155 1.314171 -0.093169
v -0.040962 1.314171 -0.093169
v -0.040962 1.321150 -0.093169
v -0.049155 1.321150 -0.093169
v -0.065540 1.335106 -0.093169
v -0.057348 1.335106 -0.093169
v -0.057348 1.342084 -0.093169
v -0.065540 1.342084 -0.093169
v 0.065540 1.328127 -0.093169
v 0.008193 1.321150 -0.093169
v 0.000000 1.321150 -0.093169
v 0.000000 1.328127 -0.093169
v 0.008193 1.328127 -0.093169
v 0.008193 1.335106 -0.093169
v 0.000000 1.335106 -0.093169
v -0.032769 1.314171 -0.093169
v -0.024578 1.314171 -0.093169
v -0.024578 1.321150 -0.093169
v -0.032769 1.321150 -0.093169
v 0.008193 1.363019 -0.093169
v 0.000000 1.363019 -0.093169
v -0.065540 1.321150 -0.093169
v -0.057348 1.321150 -0.093169
v -0.057348 1.328127 -0.093169
v -0.065540 1.328127 -0.093169
v 0.008193 1.342084 -0.093169
v 0.000000 1.342084 -0.093169
v 0.032769 1.342084 -0.093169
v 0.040962 1.342084 -0.093169
v 0.040962 1.349061 -0.093169
v 0.032769 1.349061 -0.093169
v -0.049155 1.342084 -0.093169
v -0.040962 1.342084 -0.093169
v -0.016385 1.342084 -0.093169
v -0.008193 1.342084 -0.093169
v -0.008193 1.349061 -0.093169
v -0.016385 1.349061 -0.093169
v 0.032769 1.328127 -0.093169
v 0.040962 1.328127 -0.093169
v 0.040962 1.335106 -0.093169
v 0.032769 1.335106 -0.093169
v 0.049155 1.342084 -0.093169
v 0.057348 1.349061 -0.093169
v 0.049155 1.349061 -0.093169
v -0.040962 1.328127 -0.093169
v -0.049155 1.328127 -0.093169
v 0.024578 1.335106 -0.093169
v -0.024578 1.328127 -0.093169
v -0.032769 1.328127 -0.093169
v 0.016385 1.335106 -0.093169
v 0.024578 1.342084 -0.093169
v 0.016385 1.342084 -0.093169
v -0.024578 1.335106 -0.093169
v -0.032769 1.335106 -0.093169
v -0.032769 1.349061 -0.093169
v -0.024578 1.349061 -0.093169
v -0.024578 1.356040 -0.093169
v -0.032769 1.356040 -0.093169
v -0.024578 1.342084 -0.093169
v -0.032769 1.342084 -0.093169
v 0.016385 1.314171 -0.093169
v 0.024578 1.314171 -0.093169
v 0.032769 1.321150 -0.093169
v 0.040962 1.321150 -0.093169
v 0.049155 1.321150 -0.093169
v 0.065540 1.349061 -0.093169
v 0.032769 1.314171 -0.093169
v -0.024578 1.363019 -0.093169
v -0.032769 1.363019 -0.093169
v 0.024578 1.363019 -0.093169
v -0.008193 1.356040 -0.093169
v -0.016385 1.356040 -0.093169
v 0.016385 1.363019 -0.093169
v 0.049155 1.307192 -0.093169
v 0.057348 1.307192 -0.093169
v 0.049155 1.314171 -0.093169
v 0.032769 1.307192 -0.093169
v 0.040962 1.307192 -0.093169
v 0.040962 1.314171 -0.093169
v -0.032769 1.307192 -0.093169
v -0.024578 1.307192 -0.093169
v 0.016385 1.307192 -0.093169
v 0.024578 1.307192 -0.093169
v 0.065540 1.307192 -0.093169
v -0.016385 1.307192 -0.093169
v -0.008193 1.307192 -0.093169
v -0.008193 1.363019 -0.093169
v -0.016385 1.363019 -0.093169
v -0.049155 1.307192 -0.093169
v -0.016385 1.335106 -0.093169
v -0.008193 1.335106 -0.093169
v -0.049155 1.335106 -0.093169
v -0.049155 1.363019 -0.093169
v -0.040962 1.307192 -0.093169
v -0.040962 1.363019 -0.093169
v -0.040962 1.335106 -0.093169
vn 0.000000 -1.000000 0.000000
vn 0.000000 0.000000 1.000000
vn -1.000000 0.000000 0.000000
vn 0.000000 1.000000 0.000000
vn 1.000000 0.000000 0.000000
vn 0.258808 0.965929 0.000000
vn -0.258808 0.965929 0.000000
vn -0.500011 0.866019 0.000000
vn -0.707107 0.707107 0.000000
vn -0.866019 0.500011 0.000000
vn -0.923877 0.382690 0.000000
vn 0.866019 0.500011 0.000000
vn 0.923877 0.382690 0.000000
vn 0.707107 0.707107 0.000000
vn 0.500011 0.866019 0.000000
vn -0.866019 -0.500011 -0.000000
vn -0.923877 -0.382690 -0.000000
vn -0.707107 -0.707107 -0.000000
vn -0.500011 -0.866019 -0.000000
vn -0.258808 -0.965929 -0.000000
vn 0.258808 -0.965929 0.000000
vn 0.500011 -0.866019 0.000000
vn 0.707107 -0.707107 0.000000
vn 0.866019 -0.500011 0.000000
vn 0.923877 -0.382690 0.000000
vn -0.991448 0.130506 0.000000
vn -0.991448 -0.130506 -0.000000
vn 0.991448 -0.130506 0.000000
vn 0.991448 0.130506 0.000000
vt 0.000000 0.000000
vt 0.050500 0.094800
vt 0.050500 0.090100
vt 0.095800 0.090100
vt 0.141100 0.094800
vt 0.186500 0.097900
vt 0.005200 0.097900
vt 0.005200 0.094800
vt 0.186500 0.094800
vt 0.141100 0.090100
f 1/1/1 2/1/1 3/1/1 4/1/1
f 5/1/2 6/1/2 7/1/2 8/1/2
f 9/1/2 8/1/2 7/1/2 10/1/2
f 11/1/2 10/1/2 7/1/2 12/1/2
f 13/1/2 12/1/2 7/1/2 14/1/2
f 15/1/2 14/1/2 7/1/2 16/1/2
f 17/1/2 16/1/2 7/1/2 18/1/2
f 19/1/2 18/1/2 7/1/2 20/1/2
f 20/1/2 7/1/2 21/1/2 22/1/2
f 23/1/2 22/1/2 21/1/2 24/1/2
f 25/1/2 24/1/2 21/1/2 26/1/2
f 27/1/2 26/1/2 21/1/2 28/1/2
f 29/1/2 28/1/2 21/1/2 30/1/2
f 31/1/2 30/1/2 21/1/2 32/1/2
f 33/1/2 32/1/2 21/1/2 34/1/2
f 34/1/2 21/1/2 1/1/2 4/1/2
f 35/1/2 33/1/2 34/1/2 8/1/2
f 8/1/2 9/1/2 35/1/2
f 1/1/3 21/1/3 36/1/3 2/1/3
f 36/1/4 21/1/4 7/1/4 37/1/4
f 38/1/5 34/1/5 4/1/5 3/1/5
f 38/1/5 3/1/5 39/1/5
f 5/1/1 40/1/1 41/1/1 6/1/1
f 42/1/1 43/1/1 44/1/1 45/1/1
f 45/1/1 44/1/1 46/1/1
f 42/1/1 45/1/1 47/1/1 48/1/1
f 42/1/1 48/1/1 49/1/1
f 48/1/2 47/1/2 50/1/2 51/1/2
f 37/1/5 7/1/5 6/1/5 41/1/5
f 52/1/1 53/1/1 54/1/1 39/1/1
f 39/1/1 54/1/1 55/1/1 56/1/1
f 56/1/1 55/1/1 49/1/1 48/1/1
f 57/1/4 51/1/4 50/1/4 58/1/4
f 58/1/4 50/1/4 59/1/4 60/1/4
f 61/1/4 60/1/4 59/1/4 62/1/4
f 59/1/2 45/1/2 46/1/2 62/1/2
f 34/1/1 38/1/1 63/1/1 8/1/1
f 8/1/1 63/1/1 51/1/1 50/1/1
f 8/1/1 50/1/1 59/1/1
f 64/1/4 38/1/4 63/1/4 57/1/4
f 57/1/4 63/1/4 51/1/4
f 38/1/4 64/1/4 65/1/4 66/1/4
f 38/1/4 66/1/4 67/1/4
f 5/1/3 8/1/3 59/1/3 40/1/3
f 40/1/3 59/1/3 45/1/3
f 63/1/2 56/1/2 48/1/2 51/1/2
f 62/1/5 46/1/5 44/1/5 61/1/5
f 52/1/3 67/1/3 66/1/3 53/1/3
f 52/1/2 39/1/2 38/1/2 67/1/2
f 38/1/2 39/1/2 56/1/2 63/1/2
f 47/1/2 45/1/2 59/1/2 50/1/2
f 68/1/2 69/1/2 70/1/2 71/1/2
f 72/1/2 68/1/2 71/1/2 73/1/2
f 72/1/2 73/1/2 74/1/2 75/1/2
f 76/1/2 72/1/2 75/1/2 77/1/2
f 78/1/2 76/1/2 77/1/2 79/1/2
f 80/1/2 78/1/2 79/1/2 81/1/2
f 82/1/2 80/1/2 81/1/2 83/1/2
f 84/1/2 82/1/2 83/1/2 85/1/2
f 86/1/2 84/1/2 85/1/2 87/1/2
f 88/1/2 86/1/2 87/1/2 89/1/2
f 90/1/2 88/1/2 89/1/2 91/1/2
f 20/1/4 91/1/4 89/1/6 19/1/6
f 22/1/7 90/1/7 91/1/4 20/1/4
f 23/1/8 88/1/8 90/1/7 22/1/7
f 24/1/9 86/1/9 88/1/8 23/1/8
f 84/1/10 86/1/9 24/1/9 25/1/10
f 82/1/11 84/1/10 25/1/10 26/1/11
f 16/1/12 83/1/12 81/1/13 15/1/13
f 17/1/14 85/1/14 83/1/12 16/1/12
f 18/1/15 87/1/15 85/1/14 17/1/14
f 19/1/6 89/1/6 87/1/15 18/1/15
f 92/1/2 93/1/2 94/1/2 95/1/2
f 96/1/2 92/1/2 95/1/2 97/1/2
f 98/1/2 96/1/2 97/1/2 99/1/2
f 100/1/2 98/1/2 99/1/2 101/1/2
f 102/1/2 100/1/2 101/1/2 103/1/2
f 104/1/2 102/1/2 103/1/2 105/1/2
f 105/1/2 103/1/2 106/1/2 107/1/2
f 108/1/2 105/1/2 107/1/2 109/1/2
f 110/1/2 108/1/2 109/1/2 111/1/2
f 112/1/2 110/1/2 111/1/2 113/1/2
f 112/1/2 113/1/2 114/1/2 115/1/2
f 100/1/16 102/1/17 29/1/17 30/1/16
f 98/1/18 100/1/16 30/1/16 31/1/18
f 96/1/19 98/1/18 31/1/18 32/1/19
f 92/1/20 96/1/19 32/1/19 33/1/20
f 93/1/1 92/1/20 33/1/20 35/1/1
f 94/1/21 93/1/1 35/1/1 9/1/21
f 95/1/22 94/1/21 9/1/21 10/1/22
f 97/1/23 95/1/22 10/1/22 11/1/23
f 12/1/24 99/1/24 97/1/23 11/1/23
f 13/1/25 101/1/25 99/1/24 12/1/24
f 33/1/2 35/1/2 9/1/2 10/1/2
f 32/1/2 33/1/2 10/1/2 11/1/2
f 31/1/2 32/1/2 11/1/2 12/1/2
f 30/1/2 31/1/2 12/1/2 13/1/2
f 29/1/2 30/1/2 13/1/2 14/1/2
f 28/1/2 29/1/2 14/1/2 15/1/2
f 27/1/2 28/1/2 15/1/2 26/1/2
f 26/1/2 15/1/2 16/1/2 25/1/2
f 25/1/2 16/1/2 17/1/2 24/1/2
f 24/1/2 17/1/2 18/1/2 23/1/2
f 23/1/2 18/1/2 19/1/2 22/1/2
f 22/1/2 19/1/2 20/1/2
f 103/1/2 101/1/2 116/1/2 106/1/2
f 107/1/2 106/1/2 116/1/2 109/1/2
f 111/1/2 109/1/2 116/1/2 113/1/2
f 114/1/2 113/1/2 116/1/2 115/1/2
f 115/1/2 116/1/2 117/1/2 112/1/2
f 110/1/2 112/1/2 117/1/2 108/1/2
f 105/1/2 108/1/2 117/1/2 104/1/2
f 104/1/2 117/1/2 102/1/2
f 74/1/2 117/1/2 116/1/2 75/1/2
f 77/1/2 75/1/2 116/1/2 79/1/2
f 79/1/2 116/1/2 81/1/2
f 71/1/2 117/1/2 74/1/2 73/1/2
f 117/1/2 71/1/2 70/1/2 69/1/2
f 117/1/2 69/1/2 68/1/2 72/1/2
f 117/1/2 72/1/2 76/1/2 78/1/2
f 117/1/2 78/1/2 80/1/2 82/1/2
f 117/1/3 82/1/26 26/1/26 28/1/3
f 28/1/3 26/1/26 27/1/26
f 102/1/27 117/1/3 28/1/3 29/1/27
f 14/1/5 116/1/5 101/1/28 13/1/28
f 15/1/29 81/1/29 116/1/5 14/1/5
f 118/1/4 57/1/4 58/1/4 119/1/4
f 119/1/4 58/1/4 60/1/4
f 55/1/3 64/1/3 65/1/3 54/1/3
f 55/1/2 49/1/2 57/1/2 64/1/2
f 65/1/4 64/1/4 57/1/4 120/1/4
f 120/1/4 57/1/4 118/1/4
f 53/1/3 66/1/3 121/1/3 122/1/3
f 121/1/4 66/1/4 65/1/4 120/1/4
f 53/1/2 54/1/2 65/1/2 66/1/2
f 49/1/2 42/1/2 58/1/2 57/1/2
f 119/1/4 60/1/4 61/1/4 123/1/4
f 43/1/2 44/1/2 61/1/2 60/1/2
f 58/1/5 42/1/5 43/1/5 60/1/5
f 61/1/5 44/1/5 124/1/5 123/1/5
f 125/1/2 126/1/2 127/1/2 128/1/2
f 129/1/2 130/1/2 131/1/2 132/1/2
f 133/1/2 134/1/2 135/1/2 136/1/2
f 137/1/2 138/1/2 139/1/2 140/1/2
f 141/1/2 142/1/2 138/1/2 137/1/2
f 143/1/2 144/1/2 145/1/2 146/1/2
f 147/1/2 148/1/2 149/1/2 150/1/2
f 151/1/2 152/1/2 153/1/2 154/1/2
f 155/1/2 156/1/2 157/1/2 158/1/2
f 159/1/2 160/1/2 144/1/2 143/1/2
f 161/1/2 162/1/2 163/1/2 164/1/2
f 165/1/2 147/1/2 150/1/2 166/1/2
f 167/1/2 168/1/2 169/1/2 170/1/2
f 171/1/2 172/1/2 173/1/2 174/1/2
f 175/1/2 176/1/2 177/1/2 178/1/2
f 177/1/2 179/1/2 180/1/2 181/1/2
f 182/1/2 183/1/2 184/1/2 185/1/2
f 186/1/2 187/1/2 188/1/2 189/1/2
f 176/1/2 190/1/2 179/1/2 177/1/2
f 136/1/2 135/1/2 191/1/2 192/1/2
f 193/1/2 194/1/2 195/1/2 196/1/2
f 197/1/2 198/1/2 199/1/2 200/1/2
f 132/1/2 131/1/2 201/1/2 202/1/2
f 203/1/2 204/1/2 205/1/2 206/1/2
f 196/1/2 195/1/2 207/1/2 208/1/2
f 209/1/2 210/1/2 211/1/2 212/1/2
f 213/1/2 214/1/2 168/1/2 167/1/2
f 215/1/2 216/1/2 217/1/2 218/1/2
f 219/1/2 220/1/2 221/1/2 222/1/2
f 222/1/2 221/1/2 210/1/2 209/1/2
f 178/1/2 177/1/2 181/1/2 223/1/2
f 206/1/2 205/1/2 187/1/2 186/1/2
f 223/1/2 181/1/2 224/1/2 225/1/2
f 185/1/2 184/1/2 226/1/2 227/1/2
f 173/1/2 219/1/2 222/1/2 228/1/2
f 200/1/2 199/1/2 229/1/2 230/1/2
f 192/1/2 191/1/2 194/1/2 193/1/2
f 231/1/2 228/1/2 232/1/2 233/1/2
f 230/1/2 229/1/2 234/1/2 235/1/2
f 236/1/2 237/1/2 238/1/2 239/1/2
f 189/1/2 188/1/2 160/1/2 159/1/2
f 235/1/2 234/1/2 240/1/2 241/1/2
f 241/1/2 240/1/2 237/1/2 236/1/2
f 208/1/2 207/1/2 130/1/2 129/1/2
f 233/1/2 232/1/2 126/1/2 125/1/2
f 228/1/2 222/1/2 209/1/2 232/1/2
f 242/1/2 243/1/2 172/1/2 171/1/2
f 174/1/2 173/1/2 228/1/2 231/1/2
f 244/1/2 245/1/2 220/1/2 219/1/2
f 246/1/2 158/1/2 176/1/2 175/1/2
f 224/1/2 247/1/2 148/1/2 147/1/2
f 243/1/2 248/1/2 244/1/2 172/1/2
f 239/1/2 238/1/2 249/1/2 250/1/2
f 126/1/2 212/1/2 151/1/2 127/1/2
f 127/1/2 151/1/2 154/1/2 251/1/2
f 218/1/2 217/1/2 252/1/2 253/1/2
f 164/1/2 163/1/2 204/1/2 203/1/2
f 128/1/2 127/1/2 251/1/2 254/1/2
f 255/1/2 256/1/2 155/1/2 257/1/2
f 258/1/2 259/1/2 260/1/2 248/1/2
f 261/1/2 262/1/2 198/1/2 197/1/2
f 263/1/2 264/1/2 243/1/2 242/1/2
f 256/1/2 265/1/2 156/1/2 155/1/2
f 264/1/2 258/1/2 248/1/2 243/1/2
f 198/1/2 141/1/2 137/1/2 199/1/2
f 152/1/2 165/1/2 166/1/2 153/1/2
f 266/1/2 267/1/2 142/1/2 141/1/2
f 267/1/2 133/1/2 136/1/2 142/1/2
f 259/1/2 255/1/2 257/1/2 260/1/2
f 253/1/2 252/1/2 268/1/2 269/1/2
f 260/1/2 257/1/2 246/1/2 245/1/2
f 162/1/2 270/1/2 182/1/2 163/1/2
f 160/1/2 167/1/2 170/1/2 144/1/2
f 142/1/2 136/1/2 192/1/2 138/1/2
f 221/1/2 178/1/2 223/1/2 210/1/2
f 238/1/2 253/1/2 269/1/2 249/1/2
f 240/1/2 215/1/2 218/1/2 237/1/2
f 225/1/2 224/1/2 147/1/2 165/1/2
f 199/1/2 137/1/2 140/1/2 229/1/2
f 234/1/2 271/1/2 215/1/2 240/1/2
f 252/1/2 132/1/2 202/1/2 268/1/2
f 237/1/2 218/1/2 253/1/2 238/1/2
f 181/1/2 180/1/2 247/1/2 224/1/2
f 138/1/2 192/1/2 193/1/2 139/1/2
f 245/1/2 246/1/2 175/1/2 220/1/2
f 272/1/2 196/1/2 208/1/2 216/1/2
f 187/1/2 273/1/2 213/1/2 188/1/2
f 220/1/2 175/1/2 178/1/2 221/1/2
f 210/1/2 223/1/2 225/1/2 211/1/2
f 229/1/2 140/1/2 271/1/2 234/1/2
f 232/1/2 209/1/2 212/1/2 126/1/2
f 204/1/2 185/1/2 227/1/2 205/1/2
f 205/1/2 227/1/2 273/1/2 187/1/2
f 188/1/2 213/1/2 167/1/2 160/1/2
f 216/1/2 208/1/2 129/1/2 217/1/2
f 139/1/2 193/1/2 196/1/2 272/1/2
f 262/1/2 266/1/2 141/1/2 198/1/2
f 144/1/2 170/1/2 274/1/2 145/1/2
f 163/1/2 182/1/2 185/1/2 204/1/2
f 211/1/2 225/1/2 165/1/2 152/1/2
f 217/1/2 129/1/2 132/1/2 252/1/2
f 212/1/2 211/1/2 152/1/2 151/1/2
f 214/1/2 241/1/2 236/1/2 168/1/2
f 275/1/2 261/1/2 197/1/2 183/1/2
f 170/1/2 169/1/2 276/1/2 274/1/2
f 134/1/2 263/1/2 242/1/2 135/1/2
f 270/1/2 275/1/2 183/1/2 182/1/2
f 140/1/2 139/1/2 272/1/2 271/1/2
f 169/1/2 239/1/2 250/1/2 276/1/2
f 184/1/2 200/1/2 230/1/2 226/1/2
f 191/1/2 171/1/2 174/1/2 194/1/2
f 277/1/2 235/1/2 241/1/2 214/1/2
f 227/1/2 226/1/2 277/1/2 273/1/2
f 195/1/2 231/1/2 233/1/2 207/1/2
f 271/1/2 272/1/2 216/1/2 215/1/2
f 273/1/2 277/1/2 214/1/2 213/1/2
f 168/1/2 236/1/2 239/1/2 169/1/2
f 207/1/2 233/1/2 125/1/2 130/1/2
f 226/1/2 230/1/2 235/1/2 277/1/2
f 194/1/2 174/1/2 231/1/2 195/1/2
f 172/1/2 244/1/2 219/1/2 173/1/2
f 158/1/2 157/1/2 190/1/2 176/1/2
f 248/1/2 260/1/2 245/1/2 244/1/2
f 131/1/2 128/1/2 254/1/2 201/1/2
f 130/1/2 125/1/2 128/1/2 131/1/2
f 135/1/2 242/1/2 171/1/2 191/1/2
f 183/1/2 197/1/2 200/1/2 184/1/2
f 257/1/2 155/1/2 158/1/2 246/1/2
f 54/2/4 55/3/4 49/4/4 43/5/4
f 54/2/4 43/5/4 124/6/4 122/7/4
f 54/2/4 122/7/4 53/8/4
f 124/6/4 43/5/4 44/9/4
f 43/5/4 49/4/4 42/10/4
f 48/1/3 51/1/3 57/1/3 49/1/3
