mtllib SLEDGE_hammer.mtl
o SLEDGE_hammer.obj
v 0.059712 1.976597 0.304662
v 0.127025 1.909285 0.304662
v -0.059712 1.976597 0.304662
v -0.127025 1.909285 0.304662
v -0.127025 1.789861 0.304662
v -0.059712 1.722548 0.304662
v 0.059712 1.722548 0.304662
v 0.127025 1.789861 0.304662
v 0.123421 1.911815 0.447303
v 0.062243 1.972993 0.447303
v -0.123421 1.911815 0.447303
v -0.062243 1.972993 0.447303
v 0.062243 1.726152 0.447303
v 0.123421 1.787329 0.447303
v -0.062243 1.726152 0.447303
v -0.120433 1.784342 0.447308
v 0.059712 1.976597 -0.304662
v 0.127025 1.909285 -0.304662
v -0.059712 1.976597 -0.304662
v -0.127025 1.909285 -0.304662
v -0.127025 1.789861 -0.304662
v -0.059712 1.722548 -0.304662
v 0.059712 1.722548 -0.304662
v 0.127025 1.789861 -0.304662
v 0.123421 1.911815 -0.447303
v 0.062243 1.972993 -0.447303
v -0.123421 1.911815 -0.447303
v -0.062243 1.972993 -0.447303
v 0.062243 1.726152 -0.447303
v 0.123421 1.787329 -0.447303
v -0.062243 1.726152 -0.447303
v -0.120433 1.784342 -0.447308
v -0.144374 1.701591 -0.334354
v 0.148012 1.705229 -0.334354
v -0.148012 1.993978 -0.334354
v 0.148012 1.993978 -0.334354
v 0.161654 1.999628 -0.320711
v 0.161654 1.699578 -0.320711
v 0.150025 1.687949 -0.320711
v -0.150025 1.687949 -0.320711
v -0.161654 1.699578 -0.320711
v -0.161654 1.999628 -0.320711
v -0.150025 2.011257 -0.320711
v 0.150025 2.011257 -0.320711
v -0.148012 1.705229 0.334354
v 0.148012 1.705229 0.334354
v -0.144374 1.997615 0.334354
v 0.148012 1.993978 0.334354
v 0.161654 1.699578 0.320711
v 0.161654 1.999628 0.320711
v 0.150025 2.011257 0.320711
v -0.150025 2.011257 0.320711
v -0.161654 1.999628 0.320711
v -0.161654 1.699578 0.320711
v -0.150025 1.687949 0.320711
v 0.150025 1.687949 0.320711
v 0.051378 -1.006565 0.057260
v 0.024298 -1.006565 0.084340
v -0.024298 -1.006565 0.084340
v -0.051378 -1.006565 0.057260
v -0.051378 -1.006565 -0.057260
v -0.024298 -1.006565 -0.084340
v 0.024298 -1.006565 -0.084340
v 0.051378 -1.006565 -0.057260
v 0.021890 0.500000 -0.075982
v 0.046287 0.500000 -0.051585
v -0.021890 0.500000 -0.075982
v -0.046287 0.500000 -0.051585
v 0.021890 0.500000 0.075982
v 0.046287 0.500000 0.051585
v -0.021890 0.500000 0.075982
v -0.046287 0.500000 0.051585
v 0.051378 1.253282 -0.057260
v -0.024298 1.253282 -0.084340
v 0.024298 1.253282 0.084340
v -0.051378 1.253282 0.057260
v 0.024298 1.253282 -0.084340
v -0.051378 1.253282 -0.057260
v 0.051378 1.253282 0.057260
v -0.024298 1.253282 0.084340
v 0.055941 1.652599 -0.071575
v -0.026456 1.652599 -0.105425
v 0.026456 1.652599 0.105425
v -0.055941 1.652599 0.071575
v 0.026456 1.652599 -0.105425
v -0.055941 1.652599 -0.071575
v 0.055941 1.652599 0.071575
v -0.026456 1.652599 0.105425
v 0.023141 0.876641 -0.080324
v -0.048932 0.876641 -0.054533
v 0.048932 0.876641 0.054533
v -0.023141 0.876641 0.080324
v 0.048932 0.876641 -0.054533
v -0.023141 0.876641 -0.080324
v 0.023141 0.876641 0.080324
v -0.048932 0.876641 0.054533
v 0.020556 -0.253282 -0.071349
v -0.043465 -0.253282 -0.048440
v 0.043465 -0.253282 0.048440
v -0.020556 -0.253282 0.071349
v 0.043465 -0.253282 -0.048440
v -0.020556 -0.253282 -0.071349
v 0.020556 -0.253282 0.071349
v -0.043465 -0.253282 0.048440
v 0.020960 -0.629924 -0.072752
v -0.044319 -0.629924 -0.049392
v 0.044319 -0.629924 0.049392
v -0.020960 -0.629924 0.072752
v 0.044319 -0.629924 -0.049392
v -0.020960 -0.629924 -0.072752
v 0.020960 -0.629924 0.072752
v -0.044319 -0.629924 0.049392
v -0.025701 2.045708 -0.102415
v -0.054344 2.045708 -0.069531
v 0.025701 2.045708 -0.102415
v 0.054344 2.045708 -0.069531
v -0.025701 2.045708 0.102415
v -0.054344 2.045708 0.069531
v 0.025701 2.045708 0.102415
v 0.054344 2.045708 0.069531
v -0.022073 2.053645 -0.094417
v -0.046375 2.053645 -0.066518
v 0.022073 2.053645 -0.094417
v 0.046375 2.053645 -0.066518
v -0.022073 2.053645 0.094417
v -0.046375 2.053645 0.066518
v 0.022073 2.053645 0.094417
v 0.046375 2.053645 0.066518
vn 0.382686 0.923730 0.016548
vn 0.923728 0.382691 0.016550
vn -0.252725 0.967332 0.019956
vn -0.862756 0.505458 0.012831
vn -0.965074 -0.260579 0.027047
vn -0.505455 -0.862757 0.012830
vn 0.252728 -0.967332 0.019956
vn 0.862756 -0.505458 0.012828
vn 0.806811 0.334252 0.487166
vn 0.257571 0.621724 0.739673
vn -0.651426 0.164637 0.740634
vn -0.474041 0.809142 0.347238
vn 0.474042 -0.809143 0.347235
vn 0.653287 -0.170681 0.737620
vn -0.143492 -0.549315 0.823203
vn -0.804126 -0.479109 0.351905
vn 0.382688 0.923730 -0.016550
vn 0.923727 0.382693 -0.016551
vn -0.505453 0.862759 -0.012831
vn -0.923727 0.382693 -0.016551
vn -0.965074 -0.260579 -0.027047
vn -0.382689 -0.923729 -0.016548
vn 0.505453 -0.862759 -0.012828
vn 0.967332 -0.252728 -0.019955
vn 0.621726 0.257575 -0.739670
vn 0.334252 0.806812 -0.487165
vn -0.888592 0.362151 -0.281514
vn -0.170685 0.653296 -0.737612
vn 0.170682 -0.653301 -0.737608
vn 0.809140 -0.474046 -0.347236
vn -0.334242 -0.806826 -0.487149
vn -0.489088 -0.291404 -0.822117
vn -0.245610 -0.405282 -0.880581
vn 0.269213 -0.247996 -0.930603
vn -0.290151 0.275130 -0.916579
vn 0.426182 0.249285 -0.869613
vn 0.889034 0.368252 -0.272045
vn 0.829250 -0.276413 -0.485737
vn 0.320351 -0.873484 -0.366606
vn -0.349198 -0.843034 -0.409091
vn -0.873486 -0.320348 -0.366605
vn -0.843037 0.349199 -0.409083
vn -0.372230 0.881637 -0.290106
vn 0.280507 0.800883 -0.529058
vn -0.290147 -0.275117 0.916583
vn 0.426177 -0.249275 0.869618
vn -0.245611 0.405290 0.880577
vn 0.269217 0.248007 0.930599
vn 0.889035 -0.368247 0.272050
vn 0.829251 0.276418 0.485732
vn 0.320350 0.873489 0.366597
vn -0.349196 0.843035 0.409089
vn -0.873485 0.320350 0.366605
vn -0.843036 -0.349194 0.409089
vn -0.372231 -0.881633 0.290116
vn 0.280507 -0.800871 0.529076
vn 0.821025 -0.458581 0.340032
vn 0.263793 -0.724480 0.636822
vn -0.240324 -0.309567 0.920007
vn -0.500742 -0.814392 0.293297
vn -0.821025 -0.458581 -0.340032
vn -0.263793 -0.724480 -0.636822
vn 0.240324 -0.309567 -0.920007
vn 0.500742 -0.814392 -0.293297
vn 0.436572 -0.009479 -0.899619
vn 0.952300 -0.006605 -0.305091
vn -0.382666 -0.009097 -0.923842
vn -0.923857 -0.007124 -0.382672
vn 0.382666 -0.009097 0.923842
vn 0.923857 -0.007124 0.382672
vn -0.436572 -0.009479 0.899619
vn -0.952300 -0.006605 0.305091
vn 0.923804 -0.013936 -0.382611
vn -0.392998 -0.028270 -0.919105
vn 0.392998 -0.028270 0.919105
vn -0.923804 -0.013936 0.382611
vn 0.392989 -0.035898 -0.918842
vn -0.923791 -0.014825 -0.382609
vn 0.923791 -0.014825 0.382609
vn -0.392989 -0.035898 0.918842
vn 0.912373 -0.011920 -0.409187
vn -0.330004 -0.028469 -0.943550
vn 0.330004 -0.028469 0.943550
vn -0.912373 -0.011920 0.409187
vn 0.330007 -0.015250 -0.943855
vn -0.912397 -0.009552 -0.409194
vn 0.912397 -0.009552 0.409194
vn -0.330007 -0.015250 0.943855
vn 0.382661 -0.011324 -0.923819
vn -0.923843 -0.009150 -0.382662
vn 0.923843 -0.009150 0.382662
vn -0.382661 -0.011324 0.923819
vn 0.923842 -0.009245 -0.382662
vn -0.382661 -0.011480 -0.923818
vn 0.382661 -0.011480 0.923818
vn -0.923842 -0.009245 0.382662
vn 0.382688 -0.001334 -0.923877
vn -0.923881 -0.000729 -0.382679
vn 0.923881 -0.000729 0.382679
vn -0.382688 -0.001334 0.923877
vn 0.923880 -0.001267 -0.382682
vn -0.382683 -0.001174 -0.923879
vn 0.382683 -0.001174 0.923879
vn -0.923879 -0.001267 0.382682
vn 0.382611 0.017611 -0.923742
vn -0.952264 0.011796 -0.305046
vn 0.952264 0.011796 0.305046
vn -0.382611 0.017611 0.923742
vn 0.923800 0.013447 -0.382639
vn -0.436531 0.019764 -0.899472
vn 0.436531 0.019764 0.899472
vn -0.923800 0.013447 0.382639
vn -0.341346 0.361056 -0.867826
vn -0.798045 0.484322 -0.358548
vn 0.476125 0.336126 -0.812603
vn 0.848535 0.462614 -0.256860
vn -0.476125 0.336126 0.812603
vn -0.848535 0.462614 0.256860
vn 0.341346 0.361056 0.867826
vn 0.798045 0.484322 0.358548
vn -0.288487 0.849118 -0.442464
vn -0.301507 0.950753 -0.071845
vn 0.194095 0.883506 -0.426315
vn 0.337627 0.932762 -0.126343
vn -0.194095 0.883506 0.426315
vn -0.337627 0.932762 0.126343
vn 0.288487 0.849118 0.442464
vn 0.301507 0.950753 0.071845
vt 0.872768 0.812520
vt 0.992165 0.913942
vt 0.747633 0.806545
vt 0.866913 0.812541
vt 0.866618 0.911550
vt 0.992139 0.736931
vt 0.873055 0.634897
vt 0.872976 0.733825
vt 0.747549 0.632136
vt 0.747560 0.736987
vt 0.992100 0.454578
vt 0.992090 0.559190
vt 0.873036 0.457427
vt 0.873065 0.556297
vt 0.866640 0.457411
vt 0.866611 0.556316
vt 0.747544 0.559218
vt 0.992145 0.381778
vt 0.872987 0.378596
vt 0.747506 0.381727
vt 0.866689 0.378559
vt 0.747532 0.454555
vt 0.992090 0.806512
vt 0.866704 0.733863
vt 0.992109 0.632081
vt 0.866621 0.634935
vt 0.873301 0.990627
vt 0.873063 0.911568
vt 0.991861 0.986355
vt 0.747860 0.986299
vt 0.747567 0.913921
vt 0.866371 0.990576
vt 0.872772 0.278991
vt 0.992385 0.277334
vt 0.747292 0.277263
vt 0.866915 0.278940
vt 0.710151 0.182760
vt 0.636878 0.184017
vt 0.747938 0.291453
vt 0.712513 0.328079
vt 0.746746 0.218190
vt 0.639241 0.329256
vt 0.603185 0.218796
vt 0.602646 0.293838
vt 0.636878 0.327536
vt 0.602646 0.217580
vt 0.603185 0.292642
vt 0.712513 0.183644
vt 0.747938 0.220238
vt 0.639241 0.182279
vt 0.746746 0.293508
vt 0.710151 0.328962
vt 0.037182 0.595213
vt 0.033965 0.336661
vt 0.295735 0.336661
vt 0.021902 0.596994
vt 0.021902 0.331664
vt 0.033965 0.591997
vt 0.033965 0.336661
vt 0.297515 0.321380
vt 0.292518 0.333444
vt 0.032185 0.321380
vt 0.037182 0.333444
vt 0.307799 0.596994
vt 0.295735 0.591997
vt 0.307799 0.331664
vt 0.295735 0.336661
vt 0.297515 0.607277
vt 0.032185 0.607277
vt 0.292518 0.595213
vt 0.307799 0.331664
vt 0.032185 0.321380
vt 0.297515 0.607277
vt 0.021902 0.596994
vt 0.583233 0.598483
vt 0.324680 0.339931
vt 0.586450 0.339931
vt 0.598513 0.334934
vt 0.598513 0.600264
vt 0.586450 0.339931
vt 0.586450 0.595267
vt 0.322900 0.610547
vt 0.327897 0.598483
vt 0.588230 0.610547
vt 0.312616 0.334934
vt 0.324680 0.339931
vt 0.312616 0.600264
vt 0.324680 0.595267
vt 0.322900 0.324650
vt 0.588230 0.324650
vt 0.327897 0.336714
vt 0.583233 0.336714
vt 0.322900 0.324650
vt 0.598513 0.334934
vt 0.312616 0.600264
vt 0.588230 0.610547
vt 0.556226 0.619764
vt 0.726207 0.619748
vt 0.723162 0.984563
vt 0.377912 0.620975
vt 0.546927 0.619810
vt 0.546554 0.984626
vt 0.200069 0.621002
vt 0.368679 0.621020
vt 0.369431 0.985835
vt 0.021273 0.619792
vt 0.190821 0.620956
vt 0.023457 0.984607
vt 0.191957 0.985772
vt 0.011922 0.619748
vt 0.014264 0.984563
vt 0.554993 0.984580
vt 0.377913 0.985790
vt 0.200431 0.985818
vt 0.056851 0.181136
vt 0.056851 0.310965
vt 0.201544 0.181136
vt 0.022637 0.215350
vt 0.022637 0.276751
vt 0.201545 0.310965
vt 0.235760 0.276751
vt 0.235760 0.215350
vt 0.005211 0.161484
vt 0.132228 0.161484
vt 0.132228 0.174048
vt 0.991428 0.094663
vt 0.869732 0.094664
vt 0.991428 0.080329
vt 0.869732 0.080329
vt 0.005211 0.104447
vt 0.132228 0.104447
vt 0.005211 0.150815
vt 0.132228 0.150815
vt 0.991428 0.068811
vt 0.869731 0.068811
vt 0.991428 0.025912
vt 0.869732 0.025913
vt 0.869732 0.014394
vt 0.991428 0.014394
vt 0.869732 0.106182
vt 0.991428 0.106182
vt 0.005211 0.070546
vt 0.132228 0.070546
vt 0.005211 0.081214
vt 0.132228 0.081214
vt 0.504643 0.160599
vt 0.748035 0.160598
vt 0.504643 0.174932
vt 0.748035 0.174933
vt 0.504643 0.094663
vt 0.382947 0.094663
vt 0.504643 0.080330
vt 0.382947 0.080330
vt 0.504643 0.106182
vt 0.748035 0.106182
vt 0.504643 0.149080
vt 0.748035 0.149080
vt 0.504643 0.068811
vt 0.382947 0.068811
vt 0.504643 0.025913
vt 0.382947 0.025913
vt 0.504643 0.014394
vt 0.382947 0.014394
vt 0.382947 0.106182
vt 0.748035 0.068811
vt 0.748035 0.080329
vt 0.261251 0.160599
vt 0.382947 0.160598
vt 0.261251 0.174932
vt 0.382947 0.174932
vt 0.261251 0.106182
vt 0.261251 0.149080
vt 0.382947 0.149080
vt 0.261251 0.068811
vt 0.261251 0.080329
vt 0.261251 0.094663
vt 0.132228 0.093779
vt 0.261251 0.025913
vt 0.132228 0.024177
vt 0.261251 0.014394
vt 0.132228 0.013509
vt 0.005211 0.093779
vt 0.005211 0.024178
vt 0.005211 0.013509
vt 0.748035 0.094664
vt 0.748035 0.025913
vt 0.748035 0.014394
vt 0.869732 0.160598
vt 0.869732 0.174932
vt 0.869732 0.149080
vt 0.991428 0.160599
vt 0.991428 0.174932
vt 0.991428 0.149080
vt 0.002647 0.173633
vt 0.002647 0.161898
vt 0.005212 0.174048
vt 0.002647 0.081628
vt 0.002647 0.093364
vt 0.002647 0.152210
vt 0.002647 0.103052
vt 0.002647 0.022783
vt 0.002647 0.071941
vt 0.002647 0.013095
vt 0.608333 0.384717
vt 0.726839 0.384717
vt 0.608333 0.554696
vt 0.639384 0.349071
vt 0.695788 0.349071
vt 0.726839 0.554696
vt 0.695788 0.590341
vt 0.639384 0.590341
g SLEDGE_hammer1:Generic
usemtl Default
f 4/28/4 5/1/5 11/2/11 
f 11/2/11 5/1/5 16/23/16 
f 32/3/32 21/4/21 27/31/27 
f 27/31/27 21/4/21 20/5/20 
f 13/25/13 15/6/15 7/7/7 
f 7/7/7 15/6/15 6/8/6 
f 23/26/23 22/24/22 29/9/29 
f 29/9/29 22/24/22 31/10/31 
f 9/11/9 14/12/14 2/13/2 
f 2/13/2 14/12/14 8/14/8 
f 18/15/18 24/16/24 25/22/25 
f 25/22/25 24/16/24 30/17/30 
f 9/11/9 2/13/2 10/18/10 
f 10/18/10 2/13/2 1/19/1 
f 26/20/26 17/21/17 25/22/25 
f 25/22/25 17/21/17 18/15/18 
f 15/6/15 16/23/16 6/8/6 
f 6/8/6 16/23/16 5/1/5 
f 21/4/21 32/3/32 22/24/22 
f 22/24/22 32/3/32 31/10/31 
f 14/12/14 13/25/13 8/14/8 
f 8/14/8 13/25/13 7/7/7 
f 24/16/24 23/26/23 30/17/30 
f 30/17/30 23/26/23 29/9/29 
f 3/27/3 4/28/4 12/29/12 
f 12/29/12 4/28/4 11/2/11 
f 28/30/28 27/31/27 19/32/19 
f 19/32/19 27/31/27 20/5/20 
f 1/19/1 3/33/3 10/18/10 
f 10/18/10 3/33/3 12/34/12 
f 26/20/26 28/35/28 17/21/17 
f 17/21/17 28/35/28 19/36/19 
f 13/37/13 14/41/14 15/38/15 
f 9/39/9 10/40/10 14/41/14 
f 12/42/12 11/44/11 10/40/10 
f 16/43/16 15/38/15 11/44/11 
f 14/41/14 10/40/10 15/38/15 
f 10/40/10 11/44/11 15/38/15 
f 31/45/31 32/47/32 29/52/29 
f 27/46/27 28/50/28 32/47/32 
f 26/48/26 25/49/25 28/50/28 
f 30/51/30 29/52/29 25/49/25 
f 28/50/28 25/49/25 32/47/32 
f 32/47/32 25/49/25 29/52/29 
f 35/70/35 36/53/36 34/54/34 
f 35/70/35 34/54/34 33/55/33 
f 37/56/37 38/57/38 36/58/36 
f 36/58/36 38/57/38 34/59/34 
f 40/60/40 33/61/33 39/62/39 
f 39/62/39 33/61/33 34/63/34 
f 42/64/42 35/65/35 41/66/41 
f 41/66/41 35/65/35 33/67/33 
f 43/68/43 44/69/44 35/70/35 
f 35/70/35 44/69/44 36/53/36 
f 40/60/40 41/71/41 33/61/33 
f 38/57/38 39/72/39 34/59/34 
f 42/64/42 43/73/43 35/65/35 
f 44/69/44 37/74/37 36/53/36 
f 48/75/48 47/83/47 45/76/45 
f 48/75/48 45/76/45 46/77/46 
f 49/78/49 50/79/50 46/80/46 
f 46/80/46 50/79/50 48/81/48 
f 52/82/52 47/83/47 51/84/51 
f 51/84/51 47/83/47 48/75/48 
f 54/85/54 45/86/45 53/87/53 
f 53/87/53 45/86/45 47/88/47 
f 55/89/55 56/90/56 45/91/45 
f 45/91/45 56/90/56 46/92/46 
f 54/85/54 55/93/55 45/86/45 
f 56/90/56 49/94/49 46/92/46 
f 52/82/52 53/95/53 47/83/47 
f 50/79/50 51/96/51 48/81/48 
f 56/97/56 55/98/55 39/112/39 
f 39/112/39 55/98/55 40/99/40 
f 50/100/50 49/101/49 37/113/37 
f 37/113/37 49/101/49 38/102/38 
f 52/103/52 51/104/51 43/114/43 
f 43/114/43 51/104/51 44/105/44 
f 54/106/54 53/107/53 41/108/41 
f 41/108/41 53/107/53 42/109/42 
f 54/106/54 41/108/41 55/110/55 
f 55/110/55 41/108/41 40/111/40 
f 38/102/38 49/101/49 39/112/39 
f 39/112/39 49/101/49 56/97/56 
f 44/105/44 51/104/51 37/113/37 
f 37/113/37 51/104/51 50/100/50 
f 42/109/42 53/107/53 43/114/43 
f 43/114/43 53/107/53 52/103/52 
f 57/115/57 60/116/60 64/117/64 
f 57/115/57 58/118/58 60/116/60 
f 58/118/58 59/119/59 60/116/60 
f 60/116/60 61/120/61 64/117/64 
f 61/120/61 62/121/62 64/117/64 
f 62/121/62 63/122/63 64/117/64 
f 115/123/115 85/124/85 113/196/113 
f 113/196/113 85/124/85 82/125/82 
f 58/126/58 111/127/111 59/128/59 
f 59/128/59 111/127/111 108/129/108 
f 120/130/120 87/131/87 116/132/116 
f 116/132/116 87/131/87 81/133/81 
f 60/134/60 112/135/112 61/136/61 
f 61/136/61 112/135/112 106/137/106 
f 116/132/116 81/133/81 115/123/115 
f 115/123/115 81/133/81 85/124/85 
f 106/137/106 110/138/110 61/136/61 
f 61/136/61 110/138/110 62/139/62 
f 107/140/107 111/127/111 57/141/57 
f 57/141/57 111/127/111 58/126/58 
f 118/142/118 84/143/84 117/144/117 
f 117/144/117 84/143/84 88/145/88 
f 65/146/65 97/147/97 67/148/67 
f 67/148/67 97/147/97 102/149/102 
f 69/150/69 95/151/95 71/152/71 
f 71/152/71 95/151/95 92/153/92 
f 70/154/70 99/155/99 66/156/66 
f 66/156/66 99/155/99 101/157/101 
f 72/158/72 96/159/96 68/160/68 
f 68/160/68 96/159/96 90/161/90 
f 66/156/66 101/157/101 65/146/65 
f 65/146/65 101/157/101 97/147/97 
f 68/160/68 90/161/90 67/162/67 
f 67/162/67 90/161/90 94/163/94 
f 70/154/70 91/164/91 69/150/69 
f 69/150/69 91/164/91 95/151/95 
f 72/158/72 104/165/104 71/152/71 
f 71/152/71 104/165/104 100/166/100 
f 77/167/77 89/168/89 74/169/74 
f 74/169/74 89/168/89 94/170/94 
f 79/171/79 91/164/91 73/172/73 
f 73/172/73 91/164/91 93/173/93 
f 93/173/93 89/168/89 73/172/73 
f 73/172/73 89/168/89 77/167/77 
f 96/159/96 92/153/92 76/174/76 
f 76/174/76 92/153/92 80/175/80 
f 75/176/75 83/177/83 80/175/80 
f 80/175/80 83/177/83 88/145/88 
f 76/174/76 84/143/84 78/178/78 
f 78/178/78 84/143/84 86/179/86 
f 78/178/78 86/179/86 74/180/74 
f 74/180/74 86/179/86 82/181/82 
f 79/171/79 87/131/87 75/176/75 
f 75/176/75 87/131/87 83/177/83 
f 85/124/85 77/167/77 82/125/82 
f 82/125/82 77/167/77 74/169/74 
f 87/131/87 79/171/79 81/133/81 
f 81/133/81 79/171/79 73/172/73 
f 73/172/73 77/167/77 81/133/81 
f 81/133/81 77/167/77 85/124/85 
f 76/174/76 80/175/80 84/143/84 
f 84/143/84 80/175/80 88/145/88 
f 83/177/83 119/182/119 88/145/88 
f 88/145/88 119/182/119 117/144/117 
f 84/143/84 118/142/118 86/179/86 
f 86/179/86 118/142/118 114/183/114 
f 114/183/114 113/184/113 86/179/86 
f 86/179/86 113/184/113 82/181/82 
f 120/130/120 119/182/119 87/131/87 
f 87/131/87 119/182/119 83/177/83 
f 95/151/95 75/176/75 92/153/92 
f 92/153/92 75/176/75 80/175/80 
f 96/159/96 76/174/76 90/161/90 
f 90/161/90 76/174/76 78/178/78 
f 90/161/90 78/178/78 94/163/94 
f 94/163/94 78/178/78 74/180/74 
f 91/164/91 79/171/79 95/151/95 
f 95/151/95 79/171/79 75/176/75 
f 89/168/89 65/146/65 94/170/94 
f 94/170/94 65/146/65 67/148/67 
f 91/164/91 70/154/70 93/173/93 
f 93/173/93 70/154/70 66/156/66 
f 66/156/66 65/146/65 93/173/93 
f 93/173/93 65/146/65 89/168/89 
f 72/158/72 71/152/71 96/159/96 
f 96/159/96 71/152/71 92/153/92 
f 103/185/103 69/150/69 100/166/100 
f 100/166/100 69/150/69 71/152/71 
f 104/165/104 72/158/72 98/186/98 
f 98/186/98 72/158/72 68/160/68 
f 98/186/98 68/160/68 102/187/102 
f 102/187/102 68/160/68 67/162/67 
f 99/155/99 70/154/70 103/185/103 
f 103/185/103 70/154/70 69/150/69 
f 97/147/97 105/188/105 102/149/102 
f 102/149/102 105/188/105 110/189/110 
f 99/155/99 107/140/107 101/157/101 
f 101/157/101 107/140/107 109/190/109 
f 101/157/101 109/190/109 97/147/97 
f 97/147/97 109/190/109 105/188/105 
f 104/165/104 112/135/112 100/166/100 
f 100/166/100 112/135/112 108/129/108 
f 111/127/111 103/185/103 108/129/108 
f 108/129/108 103/185/103 100/166/100 
f 112/135/112 104/165/104 106/137/106 
f 106/137/106 104/165/104 98/186/98 
f 106/137/106 98/186/98 110/138/110 
f 110/138/110 98/186/98 102/187/102 
f 107/140/107 99/155/99 111/127/111 
f 111/127/111 99/155/99 103/185/103 
f 105/188/105 63/191/63 110/189/110 
f 110/189/110 63/191/63 62/192/62 
f 107/140/107 57/141/57 109/190/109 
f 109/190/109 57/141/57 64/193/64 
f 109/190/109 64/193/64 105/188/105 
f 105/188/105 64/193/64 63/191/63 
f 112/135/112 60/134/60 108/129/108 
f 108/129/108 60/134/60 59/128/59 
f 121/194/121 123/195/123 113/196/113 
f 113/196/113 123/195/123 115/123/115 
f 117/144/117 119/182/119 125/197/125 
f 125/197/125 119/182/119 127/198/127 
f 124/199/124 128/200/128 116/132/116 
f 116/132/116 128/200/128 120/130/120 
f 114/183/114 118/142/118 122/201/122 
f 122/201/122 118/142/118 126/202/126 
f 113/184/113 114/183/114 121/203/121 
f 121/203/121 114/183/114 122/201/122 
f 115/123/115 123/195/123 116/132/116 
f 116/132/116 123/195/123 124/199/124 
f 117/144/117 125/197/125 118/142/118 
f 118/142/118 125/197/125 126/202/126 
f 119/182/119 120/130/120 127/198/127 
f 127/198/127 120/130/120 128/200/128 
f 126/204/126 128/205/128 122/206/122 
f 126/204/126 125/207/125 128/205/128 
f 125/207/125 127/208/127 128/205/128 
f 128/205/128 124/209/124 122/206/122 
f 124/209/124 123/210/123 122/206/122 
f 123/210/123 121/211/121 122/206/122 
