#
#
#

mtllib house.mtl


#
#  Mesh
#
g  Mesh


#
#  Mesh_Material.002
#
usemtl  Mesh_Material.002

v 1.000000 -0.001797 0.333333
v 1.000000 -0.001797 1.000000
v -1.000000 -0.001797 1.000000
v -1.000000 -0.001797 0.333333
v 1.000000 1.998203 0.333334
v 1.000000 1.998203 -0.333333
v 1.110896 2.109833 -0.370298
v 1.110896 2.109833 0.370299
v 1.000000 1.644286 0.266345
v 1.000000 1.644286 -0.266344
v 0.941139 1.644286 -0.266344
v 0.941139 1.644286 0.266345
v 1.000000 1.577297 1.000000
v 0.999999 1.998203 1.000001
v -1.000000 1.998203 1.000000
v -1.000000 1.577297 1.000000
v -1.000000 1.577297 -0.333333
v -1.000000 1.998203 -0.333333
v -1.000000 1.998203 -1.000000
v -1.000000 1.577297 -1.000000
v 1.000000 0.577297 -1.000000
v 1.000000 -0.001797 -1.000000
v -1.000000 -0.001797 -1.000000
v -1.000000 0.577297 -1.000000
v 1.000000 1.998203 -0.999999
v 1.000000 1.577297 -1.000000
v 1.000000 1.077297 -1.000000
v -1.000000 1.077297 -1.000000
v -1.000000 -0.001797 -0.333334
v -1.000000 0.577297 -0.333334
v -1.000000 1.077297 -0.333334
v 1.000000 0.577297 1.000000
v -1.000000 0.577297 1.000000
v 1.000000 1.077297 1.000000
v -1.000000 1.077297 1.000000
v 1.000000 0.577297 0.333333
v 1.000000 1.158754 -0.251877
v 1.000000 1.495841 -0.251877
v 0.941139 1.495841 -0.251877
v 0.941139 1.158754 -0.251877
v 1.000000 1.510309 -0.933011
v 1.000000 1.510309 -0.400322
v 0.941139 1.510309 -0.400322
v 0.941140 1.510309 -0.933011
v 1.000000 1.495841 0.251877
v 0.941139 1.495841 0.251877
v 1.000000 1.010309 -0.266344
v 1.000000 1.010309 0.266345
v 0.941139 1.010309 0.266345
v 0.941139 1.010309 -0.266344
v 1.000000 1.658754 -0.414789
v 1.000000 1.658754 -0.918543
v 0.941140 1.658754 -0.918543
v 0.941139 1.658754 -0.414789
v 1.000000 1.144286 -0.400322
v 1.000000 1.144286 -0.933011
v 0.941140 1.144286 -0.933011
v 0.941139 1.144286 -0.400322
v 1.000000 0.577297 -0.333333
v 1.000000 -0.001797 -0.333333
v 1.000000 -0.001083 -0.214557
v 1.000000 0.503828 -0.214557
v 0.893611 0.503828 -0.214557
v 0.893611 -0.001083 -0.214557
v -1.000000 1.577297 0.333333
v -1.000000 1.077297 0.333333
v -1.000000 0.577297 0.333333
v -1.000000 1.998203 0.333333
v 1.000000 1.158754 0.251877
v 0.941139 1.158754 0.251877
v 1.000000 0.644286 0.266345
v 1.000000 0.644286 -0.266344
v 0.941139 0.644286 -0.266344
v 0.941139 0.644286 0.266345
v 1.110896 2.109833 1.110897
v -1.110897 2.109833 1.110896
v -1.110896 2.109833 0.370298
v -1.110896 2.109833 -0.370299
v 1.000000 -0.001083 0.223947
v 1.000000 0.503828 0.223947
v 1.000000 1.916747 -0.918543
v 1.000000 0.658754 0.918544
v 1.000000 0.995841 0.918544
v 1.000000 0.658754 0.414790
v 1.000000 0.995841 0.414790
v 1.000000 1.077297 0.333334
v 1.000000 1.916747 -0.414789
v 1.000000 1.077297 -0.333333
v 1.000000 1.577297 -0.333333
v 1.000000 1.577297 0.333334
v 1.000000 1.654025 0.923273
v 0.999999 1.921475 0.923273
v 1.000000 1.921475 0.410062
v 1.000000 1.000570 -0.923272
v 1.000000 0.654025 -0.923272
v 1.000000 1.654025 0.410061
v 1.000000 0.654025 -0.410061
v 1.000000 1.000570 -0.410061
v 1.000000 1.144286 0.933012
v 1.000000 1.510309 0.933012
v 1.000000 1.144286 0.400322
v 1.000000 1.510309 0.400322
v 1.000000 1.931214 0.266345
v 1.000000 1.931214 -0.266344
v 0.941139 1.654025 0.410061
v 0.941139 1.921475 0.410062
v 0.941139 1.921475 0.923273
v 0.941139 1.654025 0.923273
v 0.941139 0.658754 0.414790
v 0.941139 0.995841 0.414790
v 0.941139 0.995841 0.918544
v 0.941139 0.658754 0.918544
v 0.941139 1.144286 0.400322
v 0.941139 1.510309 0.400322
v 0.941139 1.510309 0.933012
v 0.941139 1.144286 0.933012
v 0.941139 0.654025 -0.923272
v 0.941140 1.000570 -0.923272
v 0.941139 1.000570 -0.410061
v 0.941139 0.654025 -0.410061
v 0.941140 1.916747 -0.918543
v 0.941139 1.916747 -0.414789
v 0.941139 1.931214 -0.266344
v 0.941139 1.931214 0.266345
v 0.893611 0.503828 0.223947
v 0.893611 -0.001083 0.223947
v -1.110896 2.109833 -1.110896
v -1.110896 2.201343 -0.370299
v -1.110896 2.201343 -1.110896
v 1.110896 2.201343 -0.370298
v 1.110896 2.201343 0.370299
v -1.110896 2.201343 0.370298
v 1.110897 2.109833 -1.110896
v -0.995602 2.201343 0.995602
v 0.995601 2.201343 0.995603
v 0.995601 2.114411 0.995603
v -0.995602 2.114411 0.995602
v 0.995602 2.201343 -0.370298
v 0.995603 2.201343 -0.995602
v 0.995603 2.114411 -0.995602
v 0.995602 2.114411 -0.370298
v -0.995602 2.201343 0.370298
v -0.995602 2.114411 0.370298
v 1.110897 2.201343 -1.110896
v -1.110897 2.201343 1.110896
v 1.110896 2.201343 1.110897
v 0.995602 2.201343 0.370299
v -0.995602 2.201343 -0.995602
v -0.995602 2.201343 -0.370299
v 0.995602 2.114411 0.370299
v -0.995602 2.114411 -0.995602
v -0.995602 2.114411 -0.370299
vn 0.000000 -1.000000 0.000000
vn 0.709403 -0.704803 0.000000
vn 0.000000 1.000000 0.000000
vn 0.000000 0.000000 1.000000
vn -1.000000 -0.000000 -0.000000
vn 0.000000 0.000000 -1.000000
vn 1.000000 0.000000 0.000000
vn 0.000000 -0.704803 0.709403
vn -0.709403 -0.704803 -0.000000
vn 1.000000 0.000200 0.000000
vn 0.000000 -0.704803 -0.709403
vt 0.000000 0.000000
vt 0.700480 0.351026
vt 0.700480 0.458407
vt 0.665729 0.464361
vt 0.665729 0.345071
vt 0.006122 0.045781
vt 0.006122 0.006180
vt 0.194289 0.006180
vt 0.194289 0.045781
vt 0.319734 0.045781
vt 0.319734 0.006180
vt 0.382456 0.006180
vt 0.382456 0.045781
vt 0.570624 0.139864
vt 0.570624 0.194348
vt 0.382456 0.194348
vt 0.382456 0.139864
vt 0.570624 0.006180
vt 0.570624 0.045781
vt 0.570624 0.092823
vt 0.382456 0.092823
vt 0.319734 0.194348
vt 0.319734 0.139864
vt 0.319734 0.092823
vt 0.006122 0.194348
vt 0.006122 0.139864
vt 0.194289 0.139864
vt 0.194289 0.194348
vt 0.006122 0.092823
vt 0.194289 0.092823
vt 0.144441 0.605018
vt 0.144441 0.715078
vt 0.012843 0.715078
vt 0.012843 0.605018
vt 0.407636 0.605018
vt 0.407636 0.715078
vt 0.276038 0.715078
vt 0.276038 0.605018
vt 0.257012 0.045781
vt 0.257012 0.092823
vt 0.257012 0.139864
vt 0.257011 0.194348
vt 0.257012 0.006180
vt 0.839297 0.243645
vt 0.839297 0.565788
vt 0.814643 0.583650
vt 0.814643 0.225782
vt 0.735231 0.345072
vt 0.735231 0.464361
vt 0.166033 0.701115
vt 0.252592 0.701115
vt 0.252592 0.605154
vt 0.166033 0.605154
vt 0.391556 0.969648
vt 0.391556 0.920615
vt 0.407636 0.905134
vt 0.407635 0.985129
vt 0.028922 0.730559
vt 0.028922 0.794625
vt 0.012843 0.810106
vt 0.128361 0.730559
vt 0.128361 0.794625
vt 0.144441 0.810106
vt 0.292117 0.969648
vt 0.276038 0.985129
vt 0.259959 0.825587
vt 0.160520 0.825587
vt 0.276038 0.810106
vt 0.292117 0.920615
vt 0.276038 0.905134
vt 0.160520 0.889652
vt 0.259959 0.889652
vt 0.144441 0.905134
vt 0.027989 0.919716
vt 0.027989 0.970546
vt 0.012843 0.985129
vt 0.012843 0.905134
vt 0.129295 0.970546
vt 0.144440 0.985129
vt 0.392490 0.795523
vt 0.392490 0.729661
vt 0.407636 0.810106
vt 0.129295 0.919716
vt 0.291184 0.729661
vt 0.291184 0.795523
vt 0.394412 0.892402
vt 0.394412 0.822837
vt 0.026066 0.822837
vt 0.026066 0.892402
vt 0.131217 0.822837
vt 0.131217 0.892402
vt 0.157664 0.972397
vt 0.262815 0.972397
vt 0.262815 0.727810
vt 0.157664 0.727810
vt 0.289261 0.822837
vt 0.157664 0.797374
vt 0.262815 0.797374
vt 0.289261 0.892402
vt 0.262815 0.917865
vt 0.157664 0.917865
vt 0.669642 0.976723
vt 0.768996 0.976723
vt 0.768996 0.877369
vt 0.669642 0.877369
vt 0.668092 0.848865
vt 0.767446 0.848865
vt 0.767446 0.749511
vt 0.668092 0.749511
vt 0.551086 0.976723
vt 0.650440 0.976723
vt 0.650440 0.877369
vt 0.551086 0.877369
vt 0.552636 0.850415
vt 0.651990 0.850415
vt 0.651990 0.751061
vt 0.552636 0.751061
vt 0.675843 0.725658
vt 0.775197 0.725658
vt 0.775197 0.626304
vt 0.675843 0.626304
vt 0.432529 0.979823
vt 0.531883 0.979823
vt 0.531883 0.880469
vt 0.432529 0.880469
vt 0.432529 0.851965
vt 0.531883 0.851965
vt 0.531883 0.752611
vt 0.432529 0.752611
vt 0.552636 0.725658
vt 0.651990 0.725658
vt 0.651990 0.626304
vt 0.552636 0.626304
vt 0.435629 0.727208
vt 0.534983 0.727208
vt 0.534983 0.627854
vt 0.435629 0.627854
vt 0.095416 0.487830
vt 0.095416 0.583792
vt 0.008857 0.583791
vt 0.008857 0.487830
vt 0.735231 0.583650
vt 0.749569 0.464361
vt 0.749569 0.583650
vt 0.651391 0.464361
vt 0.651391 0.345071
vt 0.749569 0.345072
vt 0.700480 0.243645
vt 0.665729 0.225782
vt 0.700480 0.565788
vt 0.735231 0.225782
vt 0.749569 0.565788
vt 0.749569 0.243645
vt 0.774223 0.225782
vt 0.774223 0.583650
vt 0.665729 0.583650
vt 0.794433 0.225782
vt 0.794433 0.583650
vt 0.749569 0.225782
vt 0.651391 0.583650
vt 0.651391 0.225782
vt 0.625928 0.345072
vt 0.625928 0.244353
vt 0.186166 0.565079
vt 0.625928 0.565079
vt 0.160703 0.583650
vt 0.186166 0.244353
vt 0.160703 0.225782
vt 0.186166 0.464361
vt 0.160703 0.464361
vt 0.625928 0.464361
vt 0.186166 0.345072
vt 0.160703 0.345072
vt 0.788185 0.201602
vt 0.788185 0.011034
vt 0.870240 0.011034
vt 0.870240 0.201602
vt 0.626523 0.201602
vt 0.626523 0.011034
vt 0.708578 0.011034
vt 0.708578 0.201602
f 1/1/1 2/1/1 3/1/1 4/1/1
f 5/2/2 6/3/2 7/4/2 8/5/2
f 9/1/3 10/1/3 11/1/3 12/1/3
f 13/6/4 14/7/4 15/8/4 16/9/4
f 17/10/5 18/11/5 19/12/5 20/13/5
f 21/14/6 22/15/6 23/16/6 24/17/6
f 25/18/6 26/19/6 20/13/6 19/12/6
f 26/19/6 27/20/6 28/21/6 20/13/6
f 27/20/6 21/14/6 24/17/6 28/21/6
f 29/22/5 30/23/5 24/17/5 23/16/5
f 30/23/5 31/24/5 28/21/5 24/17/5
f 31/24/5 17/10/5 20/13/5 28/21/5
f 2/25/4 32/26/4 33/27/4 3/28/4
f 32/26/4 34/29/4 35/30/4 33/27/4
f 34/29/4 13/6/4 16/9/4 35/30/4
f 1/31/7 36/32/7 32/33/7 2/34/7
f 37/1/4 38/1/4 39/1/4 40/1/4
f 41/1/1 42/1/1 43/1/1 44/1/1
f 38/1/1 45/1/1 46/1/1 39/1/1
f 47/1/1 48/1/1 49/1/1 50/1/1
f 51/1/3 52/1/3 53/1/3 54/1/3
f 55/1/3 56/1/3 57/1/3 58/1/3
f 22/35/7 21/36/7 59/37/7 60/38/7
f 61/1/4 62/1/4 63/1/4 64/1/4
f 35/30/5 16/9/5 65/39/5 66/40/5
f 66/40/5 65/39/5 17/10/5 31/24/5
f 33/27/5 35/30/5 66/40/5 67/41/5
f 67/41/5 66/40/5 31/24/5 30/23/5
f 3/28/5 33/27/5 67/41/5 4/42/5
f 4/42/5 67/41/5 30/23/5 29/22/5
f 16/9/5 15/8/5 68/43/5 65/39/5
f 65/39/5 68/43/5 18/11/5 17/10/5
f 69/1/3 37/1/3 40/1/3 70/1/3
f 71/1/3 72/1/3 73/1/3 74/1/3
f 15/44/8 14/45/8 75/46/8 76/47/8
f 18/3/9 68/2/9 77/48/9 78/49/9
f 22/1/1 60/1/1 29/1/1 23/1/1
f 60/1/1 1/1/1 4/1/1 29/1/1
f 61/1/10 79/1/10 1/1/10 60/1/10
f 80/50/7 62/51/7 59/37/7 36/32/7
f 62/51/7 61/52/7 60/38/7 59/37/7
f 79/53/7 80/50/7 36/32/7 1/31/7
f 81/54/7 52/55/7 26/56/7 25/57/7
f 82/58/7 83/59/7 34/60/7 32/33/7
f 84/61/7 82/58/7 32/33/7 36/32/7
f 83/59/7 85/62/7 86/63/7 34/60/7
f 87/64/7 81/54/7 25/57/7 6/65/7
f 37/66/7 69/67/7 86/63/7 88/68/7
f 52/55/7 51/69/7 89/70/7 26/56/7
f 45/71/7 38/72/7 89/70/7 90/73/7
f 38/72/7 37/66/7 88/68/7 89/70/7
f 69/67/7 45/71/7 90/73/7 86/63/7
f 85/62/7 84/61/7 36/32/7 86/63/7
f 51/69/7 87/64/7 6/65/7 89/70/7
f 91/74/7 92/75/7 14/76/7 13/77/7
f 92/75/7 93/78/7 5/79/7 14/76/7
f 94/80/7 95/81/7 21/36/7 27/82/7
f 96/83/7 91/74/7 13/77/7 90/73/7
f 95/81/7 97/84/7 59/37/7 21/36/7
f 98/85/7 94/80/7 27/82/7 88/68/7
f 97/84/7 98/85/7 88/68/7 59/37/7
f 93/78/7 96/83/7 90/73/7 5/79/7
f 41/86/7 56/87/7 27/82/7 26/56/7
f 99/88/7 100/89/7 13/77/7 34/60/7
f 101/90/7 99/88/7 34/60/7 86/63/7
f 100/89/7 102/91/7 90/73/7 13/77/7
f 103/92/7 104/93/7 6/65/7 5/79/7
f 72/94/7 71/95/7 36/32/7 59/37/7
f 56/87/7 55/96/7 88/68/7 27/82/7
f 48/97/7 47/98/7 88/68/7 86/63/7
f 42/99/7 41/86/7 26/56/7 89/70/7
f 10/100/7 9/101/7 90/73/7 89/70/7
f 55/96/7 42/99/7 89/70/7 88/68/7
f 102/91/7 101/90/7 86/63/7 90/73/7
f 47/98/7 72/94/7 59/37/7 88/68/7
f 71/95/7 48/97/7 86/63/7 36/32/7
f 104/93/7 10/100/7 89/70/7 6/65/7
f 9/101/7 103/92/7 5/79/7 90/73/7
f 105/102/7 106/103/7 107/104/7 108/105/7
f 109/106/7 110/107/7 111/108/7 112/109/7
f 113/110/7 114/111/7 115/112/7 116/113/7
f 57/114/7 44/115/7 43/116/7 58/117/7
f 40/118/7 39/119/7 46/120/7 70/121/7
f 117/122/7 118/123/7 119/124/7 120/125/7
f 73/126/7 50/127/7 49/128/7 74/129/7
f 53/130/7 121/131/7 122/132/7 54/133/7
f 11/134/7 123/135/7 124/136/7 12/137/7
f 45/1/6 69/1/6 70/1/6 46/1/6
f 42/1/6 55/1/6 58/1/6 43/1/6
f 84/1/4 85/1/4 110/1/4 109/1/4
f 92/1/6 91/1/6 108/1/6 107/1/6
f 101/1/4 102/1/4 114/1/4 113/1/4
f 87/1/6 51/1/6 54/1/6 122/1/6
f 93/1/1 92/1/1 107/1/1 106/1/1
f 72/1/4 47/1/4 50/1/4 73/1/4
f 95/1/4 94/1/4 118/1/4 117/1/4
f 48/1/6 71/1/6 74/1/6 49/1/6
f 56/1/4 41/1/4 44/1/4 57/1/4
f 52/1/4 81/1/4 121/1/4 53/1/4
f 91/1/3 96/1/3 105/1/3 108/1/3
f 10/1/4 104/1/4 123/1/4 11/1/4
f 100/1/6 99/1/6 116/1/6 115/1/6
f 83/1/6 82/1/6 112/1/6 111/1/6
f 97/1/3 95/1/3 117/1/3 120/1/3
f 103/1/6 9/1/6 12/1/6 124/1/6
f 99/1/3 101/1/3 113/1/3 116/1/3
f 82/1/3 84/1/3 109/1/3 112/1/3
f 94/1/1 98/1/1 119/1/1 118/1/1
f 102/1/1 100/1/1 115/1/1 114/1/1
f 85/1/1 83/1/1 111/1/1 110/1/1
f 98/1/6 97/1/6 120/1/6 119/1/6
f 104/1/1 103/1/1 124/1/1 123/1/1
f 81/1/1 87/1/1 122/1/1 121/1/1
f 96/1/4 93/1/4 106/1/4 105/1/4
f 64/138/7 63/139/7 125/140/7 126/141/7
f 79/1/3 61/1/3 64/1/3 126/1/3
f 80/1/6 79/1/6 126/1/6 125/1/6
f 62/1/1 80/1/1 125/1/1 63/1/1
f 127/142/5 78/49/5 128/143/5 129/144/5
f 8/5/7 7/4/7 130/145/7 131/146/7
f 78/49/5 77/48/5 132/147/5 128/143/5
f 14/148/2 5/2/2 8/5/2 75/149/2
f 19/150/9 18/3/9 78/49/9 127/142/9
f 68/2/9 15/148/9 76/151/9 77/48/9
f 25/152/11 19/153/11 127/154/11 133/155/11
f 6/3/2 25/150/2 133/156/2 7/4/2
f 134/1/6 135/1/6 136/1/6 137/1/6
f 138/1/5 139/1/5 140/1/5 141/1/5
f 142/1/7 134/1/7 137/1/7 143/1/7
f 133/155/6 127/154/6 129/157/6 144/158/6
f 77/48/5 76/151/5 145/159/5 132/147/5
f 7/4/7 133/156/7 144/160/7 130/145/7
f 76/47/4 75/46/4 146/158/4 145/157/4
f 75/149/7 8/5/7 131/146/7 146/161/7
f 147/162/3 135/163/3 146/161/3 131/146/3
f 148/164/3 139/165/3 144/160/3 129/166/3
f 135/163/3 134/167/3 145/168/3 146/161/3
f 149/169/3 148/164/3 129/166/3 128/170/3
f 139/165/3 138/171/3 130/145/3 144/160/3
f 138/171/3 147/162/3 131/146/3 130/145/3
f 134/167/3 142/172/3 132/173/3 145/168/3
f 142/172/3 149/169/3 128/170/3 132/173/3
f 150/174/3 143/175/3 137/176/3 136/177/3
f 140/178/3 151/179/3 152/180/3 141/181/3
f 141/181/3 152/180/3 143/175/3 150/174/3
f 135/1/5 147/1/5 150/1/5 136/1/5
f 149/1/7 142/1/7 143/1/7 152/1/7
f 147/1/5 138/1/5 141/1/5 150/1/5
f 148/1/7 149/1/7 152/1/7 151/1/7
f 139/1/4 148/1/4 151/1/4 140/1/4
